<svg width="94" height="100" viewBox="0 0 94 100" fill="none" xmlns="http://www.w3.org/2000/svg">
<path d="M68.0518 33.4092L52.5006 26.3304C52.5006 26.3304 51.2673 25.8001 51.2673 24.4558V0.937796C51.2673 0.937796 51.2673 -0.406443 52.5006 0.123853L88.3511 15.6504C88.3511 15.6504 91.1752 16.8714 92.6674 18.8569V19.2022L68.0518 33.4092Z" fill="#91BF94"/>
<path d="M68.1018 33.0398V51.0452C68.1018 51.0452 68.1018 52.4757 69.335 53.1787L92.7667 66.7074C92.7667 66.7074 94 67.4227 94 66.0045V23.7904C94 23.7904 94 20.9416 92.6681 18.8574L68.1018 33.0398Z" fill="#6E8A70"/>
<path d="M46.9995 99.4865L88.486 75.5368C88.486 75.5368 89.7192 74.8215 88.486 74.1062L63.821 59.8745C63.821 59.8745 62.5878 59.1593 61.3545 59.8745L46.9995 68.162V99.4865Z" fill="#455846"/>
<path d="M47.3687 99.4865L5.51228 75.5368C5.51228 75.5368 4.27903 74.8215 5.51228 74.1062L30.1772 59.8745C30.1772 59.8745 31.4105 59.1593 32.6437 59.8745L47.3687 68.162V99.4865Z" fill="#6E8A70"/>
<path d="M25.8982 33.0398V51.0452C25.8982 51.0452 25.8982 52.4757 24.6649 53.1787L1.23325 66.7074C1.23325 66.7074 0 67.4227 0 66.0045V23.7904C0 23.7904 -1.089e-07 20.9416 1.33191 18.8574L25.8982 33.0398Z" fill="#91BF94"/>
<path d="M25.948 33.4092L41.4992 26.3304C41.4992 26.3304 42.7324 25.8001 42.7324 24.4558V0.937796C42.7324 0.937796 42.7324 -0.406443 41.4992 0.123853L5.6487 15.6504C5.6487 15.6504 2.82457 16.8714 1.33234 18.8569V19.2022L25.948 33.4092Z" fill="#BAE3BC"/>
</svg>
