<svg viewBox="0 0 16 16" fill="none" xmlns="http://www.w3.org/2000/svg">
<path d="M8.72947 8.00702L12.849 3.91002C13.0465 3.71452 13.0465 3.39802 12.849 3.20302C12.652 3.00752 12.332 3.00752 12.135 3.20302L8.01897 7.29652L3.86497 3.14202C3.66797 2.94452 3.34797 2.94452 3.15097 3.14202C2.95397 3.34002 2.95397 3.66052 3.15097 3.85802L7.30197 8.00952L3.13597 12.1525C2.93897 12.348 2.93897 12.6645 3.13597 12.8595C3.33297 13.055 3.65297 13.055 3.84997 12.8595L8.01247 8.72002L12.15 12.858C12.347 13.0555 12.667 13.0555 12.864 12.858C13.061 12.66 13.061 12.3395 12.864 12.142L8.72947 8.00702Z"  class="amstore-icon-figure"/>
</svg>
