<svg viewBox="0 0 34 30" fill="none" xmlns="http://www.w3.org/2000/svg">
    <path class="amstore-icon-figure-stroke" d="M4.46965 17L16.5495 29.0799C16.8008 29.3312 17.2083 29.3311 17.4595 29.0797L29.5303 17L30.4231 16.1165C32.1441 14.3955 33 12.113 33 9.84901C33 7.57579 32.1441 5.30256 30.4231 3.58153C26.981 0.139489 21.3394 0.139489 17.8881 3.58153L17.0046 4.47426L16.1119 3.58153C12.6698 0.139489 7.02818 0.139489 3.58613 3.58153C1.8559 5.30256 1 7.57578 1 9.84901C1 12.113 1.85591 14.3955 3.58613 16.1165L4.46965 17ZM4.46965 17L16.5495 29.0799C16.8008 29.3312 17.2083 29.3311 17.4595 29.0797L29.5303 17" />
    <path class="amstore-icon-figure-stroke" d="M3.59937 10.7076C3.59937 11.1743 3.64278 11.6419 3.72983 12.1031" />
    <path class="amstore-icon-figure-stroke" d="M9.59147 3.43134C8.18657 3.7016 6.84643 4.37727 5.76536 5.45834C4.96618 6.25326 4.38972 7.18884 4.03339 8.1875"/>
</svg>
