<svg viewBox="0 0 22 22" fill="none" xmlns="http://www.w3.org/2000/svg">
<path d="M15.5833 10.0834H8.62584L11.6508 7.06753C11.8235 6.89492 11.9204 6.6608 11.9204 6.41669C11.9204 6.17258 11.8235 5.93847 11.6508 5.76586C11.4782 5.59325 11.2441 5.49628 11 5.49628C10.7559 5.49628 10.5218 5.59325 10.3492 5.76586L5.76584 10.3492C5.68239 10.4364 5.61697 10.5392 5.57334 10.6517C5.48166 10.8749 5.48166 11.1252 5.57334 11.3484C5.61697 11.4609 5.68239 11.5637 5.76584 11.6509L10.3492 16.2342C10.4344 16.3201 10.5358 16.3883 10.6475 16.4348C10.7592 16.4814 10.879 16.5053 11 16.5053C11.121 16.5053 11.2408 16.4814 11.3525 16.4348C11.4642 16.3883 11.5656 16.3201 11.6508 16.2342C11.7368 16.149 11.805 16.0476 11.8515 15.9359C11.898 15.8242 11.922 15.7044 11.922 15.5834C11.922 15.4623 11.898 15.3425 11.8515 15.2308C11.805 15.1191 11.7368 15.0177 11.6508 14.9325L8.62584 11.9167H15.5833C15.8265 11.9167 16.0596 11.8201 16.2315 11.6482C16.4034 11.4763 16.5 11.2431 16.5 11C16.5 10.7569 16.4034 10.5238 16.2315 10.3518C16.0596 10.1799 15.8265 10.0834 15.5833 10.0834Z" class="amstore-icon-figure"/>
</svg>
