<svg viewBox="0 0 24 24" fill="none" xmlns="http://www.w3.org/2000/svg">
<path d="M12 2C10.0222 2 8.08879 2.58649 6.4443 3.6853C4.79981 4.78412 3.51809 6.3459 2.76121 8.17317C2.00433 10.0004 1.8063 12.0111 2.19215 13.9509C2.578 15.8907 3.53041 17.6725 4.92894 19.0711C6.32746 20.4696 8.10929 21.422 10.0491 21.8079C11.9889 22.1937 13.9996 21.9957 15.8268 21.2388C17.6541 20.4819 19.2159 19.2002 20.3147 17.5557C21.4135 15.9112 22 13.9778 22 12C21.9958 9.34913 20.9408 6.80805 19.0664 4.93361C17.192 3.05916 14.6509 2.00423 12 2ZM16.71 10.71L11.71 15.71C11.5204 15.8959 11.2655 16.0001 11 16.0001C10.7345 16.0001 10.4796 15.8959 10.29 15.71L7.29 12.71C7.19677 12.6168 7.12281 12.5061 7.07234 12.3842C7.02188 12.2624 6.99591 12.1319 6.99591 12C6.99591 11.7337 7.1017 11.4783 7.29 11.29C7.47831 11.1017 7.7337 10.9959 8 10.9959C8.26631 10.9959 8.5217 11.1017 8.71 11.29L11 13.59L15.29 9.29C15.4783 9.1017 15.7337 8.99591 16 8.99591C16.2663 8.99591 16.5217 9.1017 16.71 9.29C16.8983 9.4783 17.0041 9.7337 17.0041 10C17.0041 10.2663 16.8983 10.5217 16.71 10.71Z" class="amstore-icon-figure"/>
</svg>
