<svg viewBox="0 0 24 24" fill="none" xmlns="http://www.w3.org/2000/svg">
<path d="M21 10.5H21.5V9C21.4966 7.80758 21.0214 6.66498 20.1782 5.82181C19.335 4.97864 18.1924 4.50343 17 4.5H16.5C16.3674 4.5 16.2402 4.55268 16.1464 4.64645C16.0527 4.74021 16 4.86739 16 5V7C16 7.26522 15.8946 7.51957 15.7071 7.70711C15.5196 7.89464 15.2652 8 15 8C14.7348 8 14.4804 7.89464 14.2929 7.70711C14.1054 7.51957 14 7.26522 14 7V5C14 4.86739 13.9473 4.74021 13.8536 4.64645C13.7598 4.55268 13.6326 4.5 13.5 4.5H7C5.80758 4.50343 4.66498 4.97864 3.82181 5.82181C2.97864 6.66498 2.50343 7.80758 2.5 9V10.5H3C3.39782 10.5 3.77936 10.658 4.06066 10.9393C4.34196 11.2206 4.5 11.6022 4.5 12C4.5 12.3978 4.34196 12.7794 4.06066 13.0607C3.77936 13.342 3.39782 13.5 3 13.5H2.5V15C2.50343 16.1924 2.97864 17.335 3.82181 18.1782C4.66498 19.0214 5.80758 19.4966 7 19.5H13.5C13.6326 19.5 13.7598 19.4473 13.8536 19.3536C13.9473 19.2598 14 19.1326 14 19V17C14 16.7348 14.1054 16.4804 14.2929 16.2929C14.4804 16.1054 14.7348 16 15 16C15.2652 16 15.5196 16.1054 15.7071 16.2929C15.8946 16.4804 16 16.7348 16 17V19C16 19.1326 16.0527 19.2598 16.1464 19.3536C16.2402 19.4473 16.3674 19.5 16.5 19.5H17C18.1924 19.4966 19.335 19.0214 20.1782 18.1782C21.0214 17.335 21.4966 16.1924 21.5 15V13.5H21C20.6022 13.5 20.2206 13.342 19.9393 13.0607C19.658 12.7794 19.5 12.3978 19.5 12C19.5 11.6022 19.658 11.2206 19.9393 10.9393C20.2206 10.658 20.6022 10.5 21 10.5ZM16 13.5C16 13.7652 15.8946 14.0196 15.7071 14.2071C15.5196 14.3946 15.2652 14.5 15 14.5C14.7348 14.5 14.4804 14.3946 14.2929 14.2071C14.1054 14.0196 14 13.7652 14 13.5V10.5C14 10.2348 14.1054 9.98043 14.2929 9.79289C14.4804 9.60536 14.7348 9.5 15 9.5C15.2652 9.5 15.5196 9.60536 15.7071 9.79289C15.8946 9.98043 16 10.2348 16 10.5V13.5Z" class="amstore-icon-figure"/>
</svg>
