<svg viewBox="0 0 24 24" fill="none" xmlns="http://www.w3.org/2000/svg">
<path d="M20.35 6.71003C20.3497 7.5002 20.096 8.26945 19.6263 8.90481C19.1565 9.54017 18.4954 10.0082 17.74 10.24C17.913 9.67625 18.0006 9.08975 18 8.50003C18.0001 7.46123 17.7301 6.44027 17.2164 5.53737C16.7027 4.63448 15.963 3.88069 15.07 3.35003C15.5651 3.12033 16.1042 3.00091 16.65 3.00003C17.6325 3.00188 18.574 3.39367 19.2678 4.08931C19.9615 4.78496 20.3508 5.72756 20.35 6.71003ZM19.6 11.3C19.1799 11.1824 18.7303 11.2364 18.35 11.45C17.9224 11.6871 17.4478 11.8271 16.96 11.86C16.758 12.1678 16.5233 12.4528 16.26 12.71C17.2047 13.0209 18.0457 13.5855 18.6912 14.3421C19.3367 15.0987 19.7618 16.0182 19.92 17H20.61C20.8316 17.0032 21.05 16.9463 21.2419 16.8353C21.4338 16.7244 21.5921 16.5636 21.7 16.37C21.8985 15.9977 22.0016 15.582 22 15.16V14.45C22.0044 13.7335 21.7713 13.0358 21.3371 12.4658C20.9028 11.8959 20.292 11.4859 19.6 11.3ZM8.93 3.35003C8.43489 3.12033 7.8958 3.00091 7.35 3.00003C6.46178 2.99671 5.60202 3.31304 4.92774 3.89121C4.25346 4.46939 3.80967 5.27084 3.67744 6.14916C3.5452 7.02749 3.73335 7.92407 4.2075 8.67515C4.68166 9.42623 5.41018 9.98167 6.26 10.24C6.08701 9.67625 5.99937 9.08975 6 8.50003C5.9999 7.46123 6.26995 6.44027 6.78363 5.53737C7.29732 4.63448 8.03698 3.88069 8.93 3.35003ZM7.74 12.71C7.47667 12.4528 7.24197 12.1678 7.04 11.86C6.55219 11.8271 6.07762 11.6871 5.65 11.45C5.26967 11.2364 4.82008 11.1824 4.4 11.3C3.70803 11.4859 3.09718 11.8959 2.66294 12.4658C2.22871 13.0358 1.99558 13.7335 2 14.45V15.16C1.99839 15.582 2.10147 15.9977 2.3 16.37C2.40677 16.5624 2.56343 16.7225 2.75349 16.8333C2.94355 16.9442 3.15998 17.0018 3.38 17H4.08C4.23823 16.0182 4.66331 15.0987 5.3088 14.3421C5.95428 13.5855 6.79532 13.0209 7.74 12.71ZM15.58 14.07C15.4066 14.0265 15.2288 14.003 15.05 14C14.7032 14.0008 14.3624 14.0903 14.06 14.26C13.4291 14.6077 12.7204 14.7901 12 14.7901C11.2796 14.7901 10.5709 14.6077 9.94 14.26C9.63758 14.0903 9.29677 14.0008 8.95 14C8.77123 14.003 8.5934 14.0265 8.42 14.07C7.57953 14.2979 6.83777 14.7968 6.3098 15.4893C5.78183 16.1818 5.49718 17.0292 5.5 17.9V18.77C5.50031 19.2799 5.62747 19.7816 5.87 20.23C5.9962 20.4666 6.18533 20.6637 6.4165 20.7996C6.64767 20.9355 6.91189 21.0049 7.18 21H16.82C17.0881 21.0049 17.3523 20.9355 17.5835 20.7996C17.8147 20.6637 18.0038 20.4666 18.13 20.23C18.3725 19.7816 18.4997 19.2799 18.5 18.77V17.9C18.5028 17.0292 18.2182 16.1818 17.6902 15.4893C17.1622 14.7968 16.4205 14.2979 15.58 14.07ZM16.5 8.50003C16.5 7.61001 16.2361 6.73998 15.7416 5.99996C15.2471 5.25994 14.5443 4.68316 13.7221 4.34257C12.8998 4.00197 11.995 3.91286 11.1221 4.08649C10.2492 4.26013 9.44736 4.68871 8.81802 5.31805C8.18868 5.94738 7.7601 6.7492 7.58647 7.62212C7.41283 8.49503 7.50195 9.39983 7.84254 10.2221C8.18314 11.0444 8.75991 11.7472 9.49993 12.2416C10.24 12.7361 11.11 13 12 13C13.1935 13 14.3381 12.5259 15.182 11.682C16.0259 10.8381 16.5 9.6935 16.5 8.50003Z" class="amstore-icon-figure"/>
</svg>
