<svg viewBox="0 0 24 24" fill="none" xmlns="http://www.w3.org/2000/svg">
<path d="M21.5 11V21C21.501 21.099 21.4719 21.1961 21.4166 21.2782C21.3612 21.3604 21.2822 21.4237 21.19 21.46C21.1305 21.4875 21.0656 21.5012 21 21.5C20.9331 21.4999 20.8668 21.4867 20.8051 21.4609C20.7433 21.4352 20.6872 21.3975 20.64 21.35L18.83 19.5H10C9.07177 19.5 8.18153 19.1313 7.52515 18.4749C6.86877 17.8185 6.50002 16.9283 6.50002 16H14C15.3261 16 16.5979 15.4732 17.5356 14.5355C18.4732 13.5979 19 12.3261 19 11V7.65C19.7211 7.86614 20.3535 8.30856 20.8037 8.91184C21.2539 9.51512 21.498 10.2472 21.5 11ZM17.5 11V6C17.5 5.07174 17.1313 4.1815 16.4749 3.52513C15.8185 2.86875 14.9283 2.5 14 2.5H6.00002C5.07177 2.5 4.18153 2.86875 3.52515 3.52513C2.86877 4.1815 2.50002 5.07174 2.50002 6V16C2.49903 16.099 2.52813 16.1961 2.58349 16.2782C2.63885 16.3604 2.71784 16.4237 2.81002 16.46C2.86951 16.4875 2.93448 16.5012 3.00002 16.5C3.06695 16.4999 3.13321 16.4867 3.19499 16.4609C3.25677 16.4352 3.31286 16.3975 3.36002 16.35L5.17002 14.5H14C14.9283 14.5 15.8185 14.1313 16.4749 13.4749C17.1313 12.8185 17.5 11.9283 17.5 11Z" class="amstore-icon-figure"/>
</svg>
