<svg viewBox="0 0 24 24" fill="none" xmlns="http://www.w3.org/2000/svg">
<path d="M17 4.5H7C5.80709 4.50185 4.66358 4.97655 3.82006 5.82006C2.97655 6.66358 2.50185 7.80709 2.5 9H21.5C21.4981 7.80709 21.0234 6.66358 20.1799 5.82006C19.3364 4.97655 18.1929 4.50185 17 4.5ZM2.5 11V15C2.50185 16.1929 2.97655 17.3364 3.82006 18.1799C4.66358 19.0234 5.80709 19.4981 7 19.5H17C18.1929 19.4981 19.3364 19.0234 20.1799 18.1799C21.0234 17.3364 21.4981 16.1929 21.5 15V11H2.5ZM10 16H7C6.73478 16 6.48043 15.8946 6.29289 15.7071C6.10536 15.5196 6 15.2652 6 15C6 14.7348 6.10536 14.4804 6.29289 14.2929C6.48043 14.1054 6.73478 14 7 14H10C10.2652 14 10.5196 14.1054 10.7071 14.2929C10.8946 14.4804 11 14.7348 11 15C11 15.2652 10.8946 15.5196 10.7071 15.7071C10.5196 15.8946 10.2652 16 10 16Z" class="amstore-icon-figure"/>
</svg>
