<svg viewBox="0 0 24 24" fill="none" xmlns="http://www.w3.org/2000/svg">
<path d="M12 2C10.0222 2 8.08879 2.58649 6.4443 3.6853C4.79981 4.78412 3.51809 6.3459 2.76121 8.17317C2.00433 10.0004 1.8063 12.0111 2.19215 13.9509C2.578 15.8907 3.53041 17.6725 4.92894 19.0711C6.32746 20.4696 8.10929 21.422 10.0491 21.8079C11.9889 22.1937 13.9996 21.9957 15.8268 21.2388C17.6541 20.4819 19.2159 19.2002 20.3147 17.5557C21.4135 15.9112 22 13.9778 22 12C21.9958 9.34913 20.9408 6.80805 19.0664 4.93361C17.192 3.05916 14.6509 2.00423 12 2V2ZM13 16C13 16.2652 12.8946 16.5196 12.7071 16.7071C12.5196 16.8946 12.2652 17 12 17C11.7348 17 11.4804 16.8946 11.2929 16.7071C11.1054 16.5196 11 16.2652 11 16V12C11 11.7348 11.1054 11.4804 11.2929 11.2929C11.4804 11.1054 11.7348 11 12 11C12.2652 11 12.5196 11.1054 12.7071 11.2929C12.8946 11.4804 13 11.7348 13 12V16ZM12 9C11.8022 9 11.6089 8.94135 11.4444 8.83147C11.28 8.72159 11.1518 8.56541 11.0761 8.38268C11.0004 8.19996 10.9806 7.99889 11.0192 7.80491C11.0578 7.61093 11.153 7.43275 11.2929 7.29289C11.4328 7.15304 11.6109 7.0578 11.8049 7.01921C11.9989 6.98063 12.2 7.00043 12.3827 7.07612C12.5654 7.15181 12.7216 7.27998 12.8315 7.44443C12.9414 7.60888 13 7.80222 13 8C13 8.26522 12.8946 8.51957 12.7071 8.70711C12.5196 8.89464 12.2652 9 12 9Z" class="amstore-icon-figure"/>
</svg>
