<svg viewBox="0 0 24 24" fill="none" xmlns="http://www.w3.org/2000/svg">
<path d="M21 7V17C20.9984 18.3256 20.4711 19.5964 19.5338 20.5338C18.5964 21.4711 17.3256 21.9984 16 22H12C11.7348 22 11.4804 21.8946 11.2929 21.7071C11.1054 21.5196 11 21.2652 11 21C11 20.7348 11.1054 20.4804 11.2929 20.2929C11.4804 20.1054 11.7348 20 12 20H16C16.7956 20 17.5587 19.6839 18.1213 19.1213C18.6839 18.5587 19 17.7956 19 17V7C19 6.20435 18.6839 5.44129 18.1213 4.87868C17.5587 4.31607 16.7956 4 16 4H12C11.7348 4 11.4804 3.89464 11.2929 3.70711C11.1054 3.51957 11 3.26522 11 3C11 2.73478 11.1054 2.48043 11.2929 2.29289C11.4804 2.10536 11.7348 2 12 2H16C17.3256 2.00159 18.5964 2.52888 19.5338 3.46622C20.4711 4.40356 20.9984 5.67441 21 7ZM14.707 11.293L10.707 7.293C10.6148 7.19749 10.5044 7.12131 10.3824 7.0689C10.2604 7.01649 10.1292 6.9889 9.9964 6.98775C9.86362 6.9866 9.73194 7.0119 9.60905 7.06218C9.48615 7.11246 9.3745 7.18671 9.28061 7.2806C9.18671 7.3745 9.11246 7.48615 9.06218 7.60905C9.0119 7.73194 8.9866 7.86362 8.98775 7.9964C8.9889 8.12918 9.01649 8.2604 9.0689 8.3824C9.12131 8.50441 9.19749 8.61475 9.293 8.707L11.586 11H4C3.73478 11 3.48043 11.1054 3.29289 11.2929C3.10536 11.4804 3 11.7348 3 12C3 12.2652 3.10536 12.5196 3.29289 12.7071C3.48043 12.8946 3.73478 13 4 13H11.586L9.293 15.293C9.19749 15.3852 9.12131 15.4956 9.0689 15.6176C9.01649 15.7396 8.9889 15.8708 8.98775 16.0036C8.9866 16.1364 9.0119 16.2681 9.06218 16.391C9.11246 16.5138 9.18671 16.6255 9.28061 16.7194C9.3745 16.8133 9.48615 16.8875 9.60905 16.9378C9.73194 16.9881 9.86362 17.0134 9.9964 17.0123C10.1292 17.0111 10.2604 16.9835 10.3824 16.9311C10.5044 16.8787 10.6148 16.8025 10.707 16.707L14.707 12.707C14.8945 12.5195 14.9998 12.2652 14.9998 12C14.9998 11.7348 14.8945 11.4805 14.707 11.293Z" class="amstore-icon-figure"/>
</svg>
