<svg viewBox="0 0 24 24" fill="none" xmlns="http://www.w3.org/2000/svg">
<path d="M7.87998 2.77C7.99891 2.70975 8.12267 2.65958 8.24998 2.62V19.11L6.11998 20.2C5.7467 20.3952 5.32895 20.4895 4.90802 20.4737C4.4871 20.4579 4.07759 20.3326 3.71998 20.11C3.34443 19.8818 3.03457 19.56 2.82071 19.1761C2.60686 18.7922 2.49634 18.3594 2.49998 17.92V7.74C2.49508 7.08046 2.67279 6.43244 3.01343 5.86765C3.35406 5.30287 3.84433 4.84336 4.42998 4.54L7.87998 2.77ZM9.74998 2.62V19.11L13.88 21.23C13.9989 21.2902 14.1227 21.3404 14.25 21.38V4.89L10.12 2.77C10.001 2.70975 9.87728 2.65958 9.74998 2.62ZM20.28 3.89C19.9215 3.66977 19.5122 3.54577 19.0918 3.53001C18.6714 3.51424 18.254 3.60723 17.88 3.8L15.75 4.89V21.38C15.8773 21.3404 16.001 21.2902 16.12 21.23L19.57 19.46C20.1556 19.1566 20.6459 18.6971 20.9865 18.1323C21.3272 17.5676 21.5049 16.9195 21.5 16.26V6.08C21.5036 5.64058 21.3931 5.20774 21.1792 4.82385C20.9654 4.43997 20.6555 4.11818 20.28 3.89Z"  class="amstore-icon-figure"/>
</svg>
