<svg viewBox="0 0 24 24" fill="none" xmlns="http://www.w3.org/2000/svg">
<path class="amstore-icon-figure" d="M13.5 12C13.5 12.2967 13.412 12.5867 13.2472 12.8334C13.0824 13.08 12.8481 13.2723 12.574 13.3858C12.2999 13.4994 11.9983 13.5291 11.7074 13.4712C11.4164 13.4133 11.1491 13.2704 10.9393 13.0607C10.7296 12.8509 10.5867 12.5836 10.5288 12.2926C10.4709 12.0017 10.5007 11.7001 10.6142 11.426C10.7277 11.1519 10.92 10.9176 11.1666 10.7528C11.4133 10.588 11.7033 10.5 12 10.5C12.3978 10.5 12.7794 10.658 13.0607 10.9393C13.342 11.2206 13.5 11.6022 13.5 12ZM21.5 12C21.5 13.8789 20.9428 15.7157 19.899 17.2779C18.8551 18.8402 17.3714 20.0578 15.6355 20.7769C13.8996 21.4959 11.9895 21.684 10.1466 21.3175C8.30383 20.9509 6.61109 20.0461 5.28249 18.7175C3.95389 17.3889 3.0491 15.6962 2.68254 13.8534C2.31598 12.0105 2.50412 10.1004 3.22315 8.36451C3.94218 6.62861 5.15982 5.14491 6.72209 4.10104C8.28435 3.05717 10.1211 2.5 12 2.5C14.5188 2.50238 16.9338 3.50404 18.7149 5.28512C20.496 7.0662 21.4976 9.48117 21.5 12ZM16.69 7.31C16.5054 7.12737 16.2768 6.99551 16.0262 6.92718C15.7757 6.85886 15.5118 6.85638 15.26 6.92L11.21 7.93C10.4176 8.12857 9.69389 8.53856 9.11623 9.11622C8.53856 9.69389 8.12857 10.4176 7.93 11.21L6.92 15.26C6.85639 15.5118 6.85886 15.7757 6.92719 16.0262C6.99551 16.2768 7.12738 16.5054 7.31 16.69C7.59309 16.9683 7.97305 17.126 8.37 17.13C8.49489 17.1281 8.6191 17.1113 8.74 17.08L12.79 16.07C13.5824 15.8714 14.3061 15.4614 14.8838 14.8838C15.4614 14.3061 15.8714 13.5824 16.07 12.79L17.08 8.74C17.1436 8.48823 17.1411 8.22431 17.0728 7.97378C17.0045 7.72325 16.8726 7.49461 16.69 7.31Z"/>
</svg>
