<svg viewBox="0 0 24 24" xmlns="http://www.w3.org/2000/svg">
<path fill-rule="evenodd" clip-rule="evenodd" class="amstore-icon-figure" d="M19.75 13.17C19.7019 13.1168 19.6433 13.0743 19.5779 13.045C19.5125 13.0158 19.4417 13.0004 19.37 13H4.63C4.55834 13.0004 4.48755 13.0158 4.42213 13.045C4.35672 13.0743 4.2981 13.1168 4.25 13.17C4.16011 13.2829 4.11714 13.4262 4.13 13.57L4.84 18.95C4.95194 19.792 5.36514 20.5649 6.00312 21.1256C6.64109 21.6864 7.46062 21.997 8.31 22H15.71C16.5629 22.0001 17.3867 21.6896 18.0272 21.1264C18.6677 20.5632 19.0811 19.7859 19.19 18.94L19.87 13.56C19.8814 13.4194 19.8384 13.2798 19.75 13.17ZM11 18C11 18.2652 10.8946 18.5195 10.7071 18.7071C10.5196 18.8946 10.2652 19 10 19C9.73478 19 9.48043 18.8946 9.29289 18.7071C9.10536 18.5195 9 18.2652 9 18V16C9 15.7348 9.10536 15.4804 9.29289 15.2929C9.48043 15.1053 9.73478 15 10 15C10.2652 15 10.5196 15.1053 10.7071 15.2929C10.8946 15.4804 11 15.7348 11 16V18ZM15 18C15 18.2652 14.8946 18.5195 14.7071 18.7071C14.5196 18.8946 14.2652 19 14 19C13.7348 19 13.4804 18.8946 13.2929 18.7071C13.1054 18.5195 13 18.2652 13 18V16C13 15.7348 13.1054 15.4804 13.2929 15.2929C13.4804 15.1053 13.7348 15 14 15C14.2652 15 14.5196 15.1053 14.7071 15.2929C14.8946 15.4804 15 15.7348 15 16V18ZM22 9.24997C22 9.84671 21.7629 10.419 21.341 10.841C20.919 11.2629 20.3467 11.5 19.75 11.5H4.25C3.65326 11.5 3.08097 11.2629 2.65901 10.841C2.23705 10.419 2 9.84671 2 9.24997C2 8.65324 2.23705 8.08094 2.65901 7.65898C3.08097 7.23703 3.65326 6.99997 4.25 6.99997H6.434L9.143 2.48497C9.28203 2.2628 9.50273 2.10409 9.7576 2.043C10.0125 1.9819 10.2811 2.02331 10.5058 2.15831C10.7304 2.29331 10.8931 2.5111 10.9588 2.76483C11.0245 3.01855 10.9879 3.28793 10.857 3.51497L8.766 6.99997H15.234L13.143 3.51497C13.0725 3.40236 13.0252 3.27684 13.0038 3.14574C12.9824 3.01464 12.9873 2.88058 13.0182 2.7514C13.0492 2.62222 13.1056 2.5005 13.1841 2.39335C13.2627 2.28621 13.3618 2.19578 13.4756 2.12736C13.5895 2.05893 13.7158 2.01388 13.8473 1.99483C13.9788 1.97578 14.1127 1.98312 14.2413 2.01641C14.3699 2.0497 14.4906 2.10829 14.5963 2.18874C14.702 2.26919 14.7906 2.36989 14.857 2.48497L17.566 6.99997H19.75C20.3467 6.99997 20.919 7.23703 21.341 7.65898C21.7629 8.08094 22 8.65324 22 9.24997Z"/>
</svg>
