<svg viewBox="0 0 24 24" fill="none" xmlns="http://www.w3.org/2000/svg">
<path  class="amstore-icon-figure" d="M12 2.5C10.1211 2.5 8.28435 3.05717 6.72209 4.10104C5.15982 5.14491 3.94218 6.62861 3.22315 8.36451C2.50412 10.1004 2.31598 12.0105 2.68254 13.8534C3.0491 15.6962 3.95389 17.3889 5.28249 18.7175C6.61109 20.0461 8.30383 20.9509 10.1466 21.3175C11.9895 21.684 13.8996 21.4959 15.6355 20.7769C17.3714 20.0578 18.8551 18.8402 19.899 17.2779C20.9428 15.7157 21.5 13.8789 21.5 12C21.4976 9.48117 20.496 7.0662 18.7149 5.28512C16.9338 3.50404 14.5188 2.50238 12 2.5ZM12 17.75C11.7528 17.75 11.5111 17.6767 11.3055 17.5393C11.1 17.402 10.9398 17.2068 10.8452 16.9784C10.7505 16.7499 10.7258 16.4986 10.774 16.2561C10.8223 16.0137 10.9413 15.7909 11.1161 15.6161C11.2909 15.4413 11.5137 15.3222 11.7561 15.274C11.9986 15.2258 12.25 15.2505 12.4784 15.3452C12.7068 15.4398 12.902 15.6 13.0393 15.8055C13.1767 16.0111 13.25 16.2528 13.25 16.5C13.25 16.8315 13.1183 17.1495 12.8839 17.3839C12.6495 17.6183 12.3315 17.75 12 17.75ZM12 13.25C11.7528 13.25 11.5111 13.1767 11.3055 13.0393C11.1 12.902 10.9398 12.7068 10.8452 12.4784C10.7505 12.2499 10.7258 11.9986 10.774 11.7561C10.8223 11.5137 10.9413 11.2909 11.1161 11.1161C11.2909 10.9413 11.5137 10.8222 11.7561 10.774C11.9986 10.7258 12.25 10.7505 12.4784 10.8452C12.7068 10.9398 12.902 11.1 13.0393 11.3055C13.1767 11.5111 13.25 11.7528 13.25 12C13.25 12.3315 13.1183 12.6495 12.8839 12.8839C12.6495 13.1183 12.3315 13.25 12 13.25ZM12 8.75C11.7528 8.75 11.5111 8.67669 11.3055 8.53934C11.1 8.40199 10.9398 8.20676 10.8452 7.97835C10.7505 7.74995 10.7258 7.49861 10.774 7.25614C10.8223 7.01366 10.9413 6.79093 11.1161 6.61612C11.2909 6.4413 11.5137 6.32225 11.7561 6.27402C11.9986 6.22579 12.25 6.25054 12.4784 6.34515C12.7068 6.43976 12.902 6.59998 13.0393 6.80554C13.1767 7.0111 13.25 7.25277 13.25 7.5C13.25 7.83152 13.1183 8.14946 12.8839 8.38388C12.6495 8.6183 12.3315 8.75 12 8.75Z"/>
</svg>
