<svg viewBox="0 0 24 24" fill="none" xmlns="http://www.w3.org/2000/svg">
<path d="M7 7.5C7 6.5111 7.29325 5.5444 7.84266 4.72215C8.39206 3.89991 9.17296 3.25904 10.0866 2.8806C11.0002 2.50217 12.0056 2.40315 12.9755 2.59608C13.9454 2.789 14.8363 3.26521 15.5355 3.96447C16.2348 4.66373 16.711 5.55465 16.9039 6.52455C17.0969 7.49446 16.9978 8.49979 16.6194 9.41342C16.241 10.327 15.6001 11.1079 14.7779 11.6573C13.9556 12.2068 12.9889 12.5 12 12.5C10.6744 12.4984 9.40356 11.9711 8.46622 11.0338C7.52889 10.0964 7.00159 8.8256 7 7.5ZM16.117 13.571C15.5527 13.431 14.9564 13.5089 14.447 13.789C13.6982 14.2042 12.8562 14.422 12 14.422C11.1438 14.422 10.3018 14.2042 9.55301 13.789C9.04345 13.5092 8.4473 13.4314 7.883 13.571C6.9092 13.8221 6.04728 14.3916 5.4343 15.1888C4.82132 15.9861 4.49246 16.9654 4.5 17.971V18.982C4.50013 19.6153 4.67039 20.237 4.993 20.782C5.12711 21.0022 5.31593 21.184 5.54111 21.3097C5.76629 21.4353 6.02015 21.5005 6.278 21.499H17.722C17.98 21.5005 18.2339 21.4352 18.4591 21.3094C18.6843 21.1835 18.8731 21.0015 19.007 20.781C19.3299 20.2361 19.5002 19.6144 19.5 18.981V17.967C19.5067 16.962 19.1774 15.9837 18.5645 15.1872C17.9516 14.3908 17.0901 13.8219 16.117 13.571Z" class="amstore-icon-figure"/>
</svg>
