<svg viewBox="0 0 24 24" fill="none" xmlns="http://www.w3.org/2000/svg">
<path class="amstore-icon-figure" d="M20.18 10.35L13.65 3.82C12.805 2.97871 11.6624 2.50443 10.47 2.5H6.00001C5.07175 2.5 4.18151 2.86875 3.52513 3.52513C2.86876 4.1815 2.50001 5.07174 2.50001 6V10.47C2.49894 11.061 2.61505 11.6463 2.84162 12.1922C3.06819 12.738 3.40073 13.2335 3.82001 13.65L10.35 20.18C10.768 20.5988 11.2644 20.931 11.811 21.1577C12.3575 21.3844 12.9433 21.501 13.535 21.501C14.1267 21.501 14.7125 21.3844 15.2591 21.1577C15.8056 20.931 16.302 20.5988 16.72 20.18L20.18 16.72C20.5988 16.302 20.931 15.8056 21.1577 15.259C21.3844 14.7125 21.501 14.1267 21.501 13.535C21.501 12.9433 21.3844 12.3575 21.1577 11.811C20.931 11.2644 20.5988 10.768 20.18 10.35ZM7.50001 9C7.20334 9 6.91333 8.91203 6.66665 8.7472C6.41998 8.58238 6.22772 8.34811 6.11419 8.07403C6.00066 7.79994 5.97095 7.49834 6.02883 7.20736C6.08671 6.91639 6.22957 6.64912 6.43935 6.43934C6.64913 6.22956 6.9164 6.0867 7.20737 6.02882C7.49834 5.97094 7.79994 6.00065 8.07403 6.11418C8.34812 6.22771 8.58239 6.41997 8.74721 6.66664C8.91203 6.91332 9.00001 7.20333 9.00001 7.5C9.00001 7.89782 8.84197 8.27936 8.56067 8.56066C8.27936 8.84196 7.89783 9 7.50001 9Z"/>
</svg>
