<svg viewBox="0 0 24 24" fill="none" xmlns="http://www.w3.org/2000/svg">
<path d="M12 2C10.0222 2 8.08879 2.58649 6.4443 3.6853C4.79981 4.78412 3.51809 6.3459 2.76121 8.17317C2.00433 10.0004 1.8063 12.0111 2.19215 13.9509C2.578 15.8907 3.53041 17.6725 4.92894 19.0711C6.32746 20.4696 8.10929 21.422 10.0491 21.8079C11.9889 22.1937 13.9996 21.9957 15.8268 21.2388C17.6541 20.4819 19.2159 19.2002 20.3147 17.5557C21.4135 15.9112 22 13.9778 22 12C21.9958 9.34913 20.9408 6.80805 19.0664 4.93361C17.192 3.05916 14.6509 2.00423 12 2ZM12 18C11.8022 18 11.6089 17.9414 11.4444 17.8315C11.28 17.7216 11.1518 17.5654 11.0761 17.3827C11.0004 17.2 10.9806 16.9989 11.0192 16.8049C11.0578 16.6109 11.153 16.4327 11.2929 16.2929C11.4328 16.153 11.6109 16.0578 11.8049 16.0192C11.9989 15.9806 12.2 16.0004 12.3827 16.0761C12.5654 16.1518 12.7216 16.28 12.8315 16.4444C12.9414 16.6089 13 16.8022 13 17C13 17.2652 12.8946 17.5196 12.7071 17.7071C12.5196 17.8946 12.2652 18 12 18ZM14.04 13.32C13.12 13.93 12.97 14.26 12.95 14.32C12.8829 14.5186 12.7551 14.6911 12.5846 14.8132C12.4142 14.9352 12.2096 15.0005 12 15C11.8916 14.9981 11.7839 14.9812 11.68 14.95C11.43 14.8624 11.2242 14.6805 11.1065 14.4432C10.9888 14.2059 10.9685 13.932 11.05 13.68C11.4527 12.8259 12.1093 12.1169 12.93 11.65C13.3011 11.4742 13.604 11.1811 13.792 10.8161C13.9799 10.451 14.0425 10.0342 13.97 9.63C13.8924 9.23457 13.6987 8.87121 13.4137 8.58626C13.1288 8.3013 12.7654 8.10765 12.37 8.03C12.0807 7.97554 11.783 7.98561 11.498 8.0595C11.2131 8.13339 10.9479 8.26927 10.7215 8.45744C10.4952 8.64561 10.3131 8.88144 10.1884 9.14808C10.0637 9.41473 9.99934 9.70563 10 10C10 10.2652 9.89465 10.5196 9.70711 10.7071C9.51957 10.8946 9.26522 11 9 11C8.73479 11 8.48043 10.8946 8.2929 10.7071C8.10536 10.5196 8 10.2652 8 10C7.99953 9.41632 8.12737 8.83966 8.37449 8.31087C8.6216 7.78208 8.98195 7.31407 9.43 6.94C9.96537 6.48752 10.6104 6.18386 11.3002 6.05953C11.9901 5.9352 12.7005 5.99457 13.3602 6.23168C14.0198 6.46879 14.6055 6.87529 15.0583 7.41036C15.5111 7.94543 15.8152 8.59023 15.94 9.28C16.074 10.0669 15.9638 10.8759 15.6241 11.5982C15.2844 12.3205 14.7316 12.9214 14.04 13.32Z" class="amstore-icon-figure"/>
</svg>
