<svg viewBox="0 0 24 24" fill="none" xmlns="http://www.w3.org/2000/svg">
<path d="M21 18.14V18.65C21.0016 19.3848 20.751 20.0978 20.29 20.67C20.1999 20.7777 20.0864 20.8634 19.9581 20.9205C19.8299 20.9777 19.6903 21.0049 19.55 21H16.87C17.2826 20.2855 17.4999 19.4751 17.5 18.65V18.14C17.5045 16.747 16.9953 15.4012 16.07 14.36C16.136 14.3361 16.1997 14.306 16.26 14.27C16.7385 14.0056 17.2988 13.9307 17.83 14.06C18.7375 14.2896 19.5423 14.8157 20.1166 15.5549C20.6909 16.2941 21.0018 17.2039 21 18.14ZM14 4C13.6872 3.99756 13.3751 4.03111 13.07 4.1C13.6784 4.66015 14.164 5.34037 14.4961 6.09771C14.8283 6.85504 14.9998 7.67303 14.9998 8.5C14.9998 9.32698 14.8283 10.145 14.4961 10.9023C14.164 11.6596 13.6784 12.3399 13.07 12.9C13.3751 12.9689 13.6872 13.0024 14 13C15.1935 13 16.3381 12.5259 17.182 11.682C18.0259 10.8381 18.5 9.69348 18.5 8.5C18.5 7.30653 18.0259 6.16194 17.182 5.31802C16.3381 4.47411 15.1935 4 14 4ZM9 4C8.10998 4 7.23995 4.26392 6.49993 4.75839C5.75991 5.25286 5.18313 5.95566 4.84254 6.77793C4.50194 7.60019 4.41283 8.505 4.58646 9.37791C4.7601 10.2508 5.18868 11.0526 5.81802 11.682C6.44735 12.3113 7.24917 12.7399 8.12209 12.9135C8.995 13.0872 9.8998 12.9981 10.7221 12.6575C11.5443 12.3169 12.2471 11.7401 12.7416 11.0001C13.2361 10.26 13.5 9.39002 13.5 8.5C13.4981 7.3071 13.0234 6.16358 12.1799 5.32007C11.3364 4.47655 10.1929 4.00185 9 4ZM12.83 14.06C12.6561 14.0203 12.4783 14.0002 12.3 14C11.9356 13.9968 11.5768 14.0899 11.26 14.27C10.5688 14.6424 9.79635 14.8382 9.01125 14.8399C8.22615 14.8417 7.4528 14.6493 6.76 14.28C6.43223 14.099 6.06442 14.0027 5.69 14C5.53538 14.0013 5.38127 14.018 5.23 14.05C4.30773 14.2647 3.48577 14.7863 2.89889 15.5295C2.31202 16.2726 1.99506 17.1931 2 18.14V18.65C1.99834 19.3848 2.24898 20.0978 2.71 20.67C2.80012 20.7777 2.91362 20.8634 3.04185 20.9205C3.17008 20.9777 3.30967 21.0049 3.45 21H14.55C14.6903 21.0049 14.8299 20.9777 14.9581 20.9205C15.0864 20.8634 15.1999 20.7777 15.29 20.67C15.751 20.0978 16.0016 19.3848 16 18.65V18.14C16.0018 17.2039 15.6909 16.2941 15.1166 15.5549C14.5423 14.8157 13.7375 14.2896 12.83 14.06Z" class="amstore-icon-figure"/>
</svg>
