<svg viewBox="0 0 24 24" fill="none" xmlns="http://www.w3.org/2000/svg">
<path d="M18.209 8.21L19.709 6.71C19.8023 6.61676 19.8762 6.50607 19.9267 6.38425C19.9771 6.26243 20.0031 6.13186 20.0031 6C20.0031 5.86814 19.9771 5.73757 19.9267 5.61575C19.8762 5.49393 19.8023 5.38324 19.709 5.29C19.6158 5.19676 19.5051 5.1228 19.3833 5.07234C19.2615 5.02188 19.1309 4.99591 18.999 4.99591C18.8672 4.99591 18.7366 5.02188 18.6148 5.07234C18.493 5.1228 18.3823 5.19676 18.289 5.29L16.789 6.79C16.7355 6.85521 16.6887 6.92555 16.649 7C15.5699 6.22845 14.316 5.73707 13 5.57V4H14C14.2652 4 14.5196 3.89464 14.7071 3.70711C14.8947 3.51957 15 3.26522 15 3C15 2.73478 14.8947 2.48043 14.7071 2.29289C14.5196 2.10536 14.2652 2 14 2H10C9.73481 2 9.48046 2.10536 9.29292 2.29289C9.10538 2.48043 9.00003 2.73478 9.00003 3C9.00003 3.26522 9.10538 3.51957 9.29292 3.70711C9.48046 3.89464 9.73481 4 10 4H11V5.57C9.2322 5.79206 7.58909 6.59791 6.33123 7.85979C5.07337 9.12166 4.27275 10.7673 4.05632 12.5359C3.83989 14.3044 4.22004 16.0946 5.13649 17.6225C6.05294 19.1505 7.45324 20.3288 9.11535 20.9706C10.7775 21.6124 12.6063 21.681 14.3118 21.1654C16.0173 20.6499 17.5019 19.5798 18.5302 18.1248C19.5585 16.6698 20.0717 14.9131 19.9883 13.1333C19.905 11.3535 19.2298 9.65254 18.07 8.3C18.1186 8.27354 18.165 8.24345 18.209 8.21ZM14.619 16.78C14.4449 16.9238 14.2258 17.0017 14 17C13.8498 16.9993 13.7017 16.9648 13.5667 16.899C13.4316 16.8332 13.3132 16.7379 13.22 16.62L11.22 14.12C11.0772 13.945 10.9995 13.7259 11 13.5V10C11 9.73478 11.1054 9.48043 11.2929 9.29289C11.4805 9.10536 11.7348 9 12 9C12.2652 9 12.5196 9.10536 12.7071 9.29289C12.8947 9.48043 13 9.73478 13 10V13.15L14.78 15.38C14.8632 15.4817 14.9252 15.5991 14.9622 15.7252C14.9993 15.8513 15.0106 15.9835 14.9956 16.114C14.9806 16.2446 14.9395 16.3708 14.8748 16.4852C14.8101 16.5996 14.7232 16.6998 14.619 16.78Z" class="amstore-icon-figure"/>
</svg>
