<svg viewBox="0 0 24 24" fill="none" xmlns="http://www.w3.org/2000/svg">
<path d="M20.62 9.86901L20.04 9.28901C19.7586 9.00798 19.6003 8.6267 19.6 8.22901V7.40901C19.5989 6.61113 19.2814 5.84624 18.7171 5.28215C18.1528 4.71805 17.3879 4.40081 16.59 4.40001H15.77C15.5727 4.4022 15.3771 4.36433 15.1949 4.2887C15.0127 4.21307 14.8477 4.10125 14.71 3.96001L14.13 3.38001C13.5635 2.81796 12.7979 2.50256 12 2.50256C11.202 2.50256 10.4364 2.81796 9.86997 3.38001L9.28997 3.96001C9.15224 4.10125 8.98729 4.21307 8.80509 4.2887C8.62289 4.36433 8.42723 4.4022 8.22997 4.40001H7.40997C6.61209 4.40081 5.84709 4.71805 5.28281 5.28215C4.71853 5.84624 4.40103 6.61113 4.39997 7.40901V8.22901C4.40216 8.42627 4.36429 8.62193 4.28866 8.80413C4.21303 8.98633 4.10121 9.15129 3.95997 9.28901L3.37997 9.86901C2.81646 10.4347 2.50006 11.2006 2.50006 11.999C2.50006 12.7975 2.81646 13.5634 3.37997 14.129L3.95997 14.709C4.10121 14.8467 4.21303 15.0117 4.28866 15.1939C4.36429 15.3761 4.40216 15.5718 4.39997 15.769V16.589C4.4005 17.3872 4.71776 18.1526 5.2821 18.7172C5.84645 19.2817 6.61174 19.5992 7.40997 19.6H8.22997C8.42723 19.5978 8.62289 19.6357 8.80509 19.7113C8.98729 19.787 9.15224 19.8988 9.28997 20.04L9.86997 20.62C10.4356 21.1835 11.2015 21.4999 12 21.4999C12.7984 21.4999 13.5643 21.1835 14.13 20.62L14.71 20.04C14.8477 19.8988 15.0127 19.787 15.1949 19.7113C15.3771 19.6357 15.5727 19.5978 15.77 19.6H16.59C17.388 19.5992 18.1532 19.2818 18.7175 18.7175C19.2818 18.1532 19.5992 17.3881 19.6 16.59V15.77C19.6003 15.3723 19.7586 14.991 20.04 14.71L20.62 14.13C21.1835 13.5644 21.4999 12.7985 21.4999 12C21.4999 11.2016 21.1835 10.4357 20.62 9.87001V9.86901ZM9.49997 8.24901C9.74716 8.24901 9.98879 8.3223 10.1943 8.45961C10.3999 8.59691 10.5601 8.79208 10.6547 9.02043C10.7494 9.24878 10.7742 9.50006 10.726 9.74251C10.6779 9.98496 10.5589 10.2077 10.3842 10.3825C10.2095 10.5574 9.98686 10.6765 9.74445 10.7249C9.50204 10.7732 9.25074 10.7486 9.02231 10.6542C8.79389 10.5597 8.59859 10.3996 8.46112 10.1942C8.32365 9.98877 8.25017 9.7472 8.24997 9.50001C8.24984 9.33578 8.28208 9.17312 8.34484 9.02135C8.4076 8.86958 8.49965 8.73166 8.61574 8.61548C8.73182 8.4993 8.86967 8.40714 9.02139 8.34426C9.17311 8.28138 9.33574 8.24901 9.49997 8.24901ZM14.5 15.749C14.2527 15.749 14.0111 15.6757 13.8055 15.5384C13.5999 15.401 13.4397 15.2058 13.3451 14.9774C13.2505 14.749 13.2258 14.4976 13.274 14.2552C13.3222 14.0127 13.4413 13.7899 13.6161 13.6151C13.7909 13.4403 14.0136 13.3213 14.2561 13.273C14.4986 13.2248 14.7499 13.2496 14.9783 13.3442C15.2067 13.4388 15.402 13.599 15.5393 13.8046C15.6767 14.0101 15.75 14.2518 15.75 14.499C15.75 14.8305 15.6183 15.1485 15.3839 15.3829C15.1494 15.6173 14.8315 15.749 14.5 15.749ZM15.71 9.70901L9.70997 15.709C9.51997 15.8944 9.26541 15.9987 8.99997 16C8.73504 15.9971 8.48116 15.8934 8.28997 15.71C8.10262 15.5212 7.99749 15.266 7.99749 15C7.99749 14.734 8.10262 14.4788 8.28997 14.29L14.29 8.29001C14.4783 8.10171 14.7337 7.99592 15 7.99592C15.2663 7.99592 15.5217 8.10171 15.71 8.29001C15.8983 8.47832 16.0041 8.73371 16.0041 9.00001C16.0041 9.26631 15.8983 9.52171 15.71 9.71001V9.70901Z" class="amstore-icon-figure"/>
</svg>
